{
  "accessors": [
    {
      "bufferView": 2,
      "componentType": 5126,
      "count": 22,
      "max": [
        0.013069000095129013,
        -0.0036090000066906214,
        0.06363900005817413
      ],
      "min": [
        -0.013069000095129013,
        -0.013636999763548374,
        -0.031394001096487045
      ],
      "type": "VEC3"
    },
    {
      "bufferView": 2,
      "byteOffset": 264,
      "componentType": 5126,
      "count": 22,
      "max": [
        0.9238766431808472,
        -0.38269031047821045,
        0.0
      ],
      "min": [
        -0.9238766431808472,
        -1.0,
        0.0
      ],
      "type": "VEC3"
    },
    {
      "bufferView": 1,
      "componentType": 5126,
      "count": 22,
      "max": [
        0.726984977722168,
        0.9666489958763123
      ],
      "min": [
        0.3771289885044098,
        0.025356000289320946
      ],
      "type": "VEC2"
    },
    {
      "bufferView": 0,
      "componentType": 5125,
      "count": 60,
      "type": "SCALAR"
    },
    {
      "bufferView": 2,
      "byteOffset": 528,
      "componentType": 5126,
      "count": 676,
      "max": [
        0.012989000417292118,
        0.012989000417292118,
        0.06385400146245956
      ],
      "min": [
        -0.012989000417292118,
        -0.012989000417292118,
        0.05631500110030174
      ],
      "type": "VEC3"
    },
    {
      "bufferView": 2,
      "byteOffset": 8640,
      "componentType": 5126,
      "count": 676,
      "max": [
        0.9914475083351135,
        0.9914475083351135,
        1.0
      ],
      "min": [
        -0.9914475083351135,
        -0.9914475083351135,
        -1.0
      ],
      "type": "VEC3"
    },
    {
      "bufferView": 1,
      "byteOffset": 176,
      "componentType": 5126,
      "count": 676,
      "max": [
        1.0,
        1.0
      ],
      "min": [
        -0.0,
        0.009999999776482582
      ],
      "type": "VEC2"
    },
    {
      "bufferView": 0,
      "byteOffset": 240,
      "componentType": 5125,
      "count": 1284,
      "type": "SCALAR"
    },
    {
      "bufferView": 2,
      "byteOffset": 16752,
      "componentType": 5126,
      "count": 1088,
      "max": [
        0.005237000063061714,
        0.005237000063061714,
        0.09789200127124786
      ],
      "min": [
        -0.005237000063061714,
        -0.005237000063061714,
        0.07046700268983841
      ],
      "type": "VEC3"
    },
    {
      "bufferView": 2,
      "byteOffset": 29808,
      "componentType": 5126,
      "count": 1088,
      "max": [
        1.0,
        1.0,
        1.0
      ],
      "min": [
        -1.0,
        -1.0,
        -1.0
      ],
      "type": "VEC3"
    },
    {
      "bufferView": 1,
      "byteOffset": 5584,
      "componentType": 5126,
      "count": 1088,
      "max": [
        1.0,
        1.0
      ],
      "min": [
        0.0,
        0.0
      ],
      "type": "VEC2"
    },
    {
      "bufferView": 0,
      "byteOffset": 5376,
      "componentType": 5125,
      "count": 2868,
      "type": "SCALAR"
    },
    {
      "bufferView": 2,
      "byteOffset": 42864,
      "componentType": 5126,
      "count": 166,
      "max": [
        0.0005920000257901847,
        0.0005920000257901847,
        0.15640400350093842
      ],
      "min": [
        -0.0005920000257901847,
        -0.0005920000257901847,
        0.09532400220632553
      ],
      "type": "VEC3"
    },
    {
      "bufferView": 2,
      "byteOffset": 44856,
      "componentType": 5126,
      "count": 166,
      "max": [
        0.9807839393615723,
        0.9807839393615723,
        1.0
      ],
      "min": [
        -0.9807839393615723,
        -0.9807839393615723,
        -0.6657400131225586
      ],
      "type": "VEC3"
    },
    {
      "bufferView": 1,
      "byteOffset": 14288,
      "componentType": 5126,
      "count": 166,
      "max": [
        1.0,
        0.9934070110321045
      ],
      "min": [
        0.0,
        0.009999999776482582
      ],
      "type": "VEC2"
    },
    {
      "bufferView": 0,
      "byteOffset": 16848,
      "componentType": 5125,
      "count": 372,
      "type": "SCALAR"
    },
    {
      "bufferView": 2,
      "byteOffset": 46848,
      "componentType": 5126,
      "count": 1754,
      "max": [
        0.02490299940109253,
        0.013794000260531902,
        0.07802099734544754
      ],
      "min": [
        -0.02490299940109253,
        -0.013794000260531902,
        -0.07640200108289719
      ],
      "type": "VEC3"
    },
    {
      "bufferView": 2,
      "byteOffset": 67896,
      "componentType": 5126,
      "count": 1754,
      "max": [
        1.0,
        1.0,
        1.0
      ],
      "min": [
        -1.0,
        -1.0,
        -1.0
      ],
      "type": "VEC3"
    },
    {
      "bufferView": 1,
      "byteOffset": 15616,
      "componentType": 5126,
      "count": 1754,
      "max": [
        1.0,
        1.0
      ],
      "min": [
        -0.5705900192260742,
        -0.6024019718170166
      ],
      "type": "VEC2"
    },
    {
      "bufferView": 0,
      "byteOffset": 18336,
      "componentType": 5125,
      "count": 5256,
      "type": "SCALAR"
    }
  ],
  "asset": {
    "extras": {
      "author": "assetfactory (https://sketchfab.com/assetfactory)",
      "license": "SKETCHFAB Standard (https://sketchfab.com/licenses)",
      "source": "https://sketchfab.com/3d-models/medical-syringe-244ab35976ca46758fda5ae9c5ecc9ee",
      "title": "Medical Syringe"
    },
    "generator": "Sketchfab-16.33.0",
    "version": "2.0"
  },
  "bufferViews": [
    {
      "buffer": 0,
      "byteLength": 39360,
      "name": "floatBufferViews",
      "target": 34963
    },
    {
      "buffer": 0,
      "byteLength": 29648,
      "byteOffset": 39360,
      "byteStride": 8,
      "name": "floatBufferViews",
      "target": 34962
    },
    {
      "buffer": 0,
      "byteLength": 88944,
      "byteOffset": 69008,
      "byteStride": 12,
      "name": "floatBufferViews",
      "target": 34962
    }
  ],
  "buffers": [
    {
      "byteLength": 157952,
      "uri": "scene.bin"
    }
  ],
  "images": [
    {
      "uri": "textures/Lines_baseColor.png"
    }
  ],
  "materials": [
    {
      "doubleSided": true,
      "name": "BlackPlastic",
      "pbrMetallicRoughness": {
        "baseColorFactor": [
          0.0,
          0.0,
          0.0,
          1.0
        ],
        "metallicFactor": 0.0,
        "roughnessFactor": 0.11483284105404298
      }
    },
    {
      "doubleSided": true,
      "name": "GreenPlastic",
      "pbrMetallicRoughness": {
        "baseColorFactor": [
          0.03127300826349147,
          0.3471510850534481,
          0.023389188121164504,
          1.0
        ],
        "metallicFactor": 0.0,
        "roughnessFactor": 0.19020167729640403
      }
    },
    {
      "alphaMode": "BLEND",
      "doubleSided": true,
      "name": "Lines",
      "pbrMetallicRoughness": {
        "baseColorTexture": {
          "index": 0
        },
        "metallicFactor": 0.0,
        "roughnessFactor": 0.6
      }
    },
    {
      "doubleSided": true,
      "name": "Metal",
      "pbrMetallicRoughness": {
        "roughnessFactor": 0.008060323044031495
      }
    },
    {
      "alphaMode": "BLEND",
      "doubleSided": true,
      "name": "WhitePlastic",
      "pbrMetallicRoughness": {
        "baseColorFactor": [
          1.0,
          1.0,
          1.0,
          0.14623652282169342
        ],
        "metallicFactor": 0.11483284105404298,
        "roughnessFactor": 0.22788609541758456
      }
    }
  ],
  "meshes": [
    {
      "name": "Object_0",
      "primitives": [
        {
          "attributes": {
            "NORMAL": 1,
            "POSITION": 0,
            "TEXCOORD_0": 2
          },
          "indices": 3,
          "material": 2,
          "mode": 4
        }
      ]
    },
    {
      "name": "Object_1",
      "primitives": [
        {
          "attributes": {
            "NORMAL": 5,
            "POSITION": 4,
            "TEXCOORD_0": 6
          },
          "indices": 7,
          "material": 0,
          "mode": 4
        }
      ]
    },
    {
      "name": "Object_2",
      "primitives": [
        {
          "attributes": {
            "NORMAL": 9,
            "POSITION": 8,
            "TEXCOORD_0": 10
          },
          "indices": 11,
          "material": 1,
          "mode": 4
        }
      ]
    },
    {
      "name": "Object_3",
      "primitives": [
        {
          "attributes": {
            "NORMAL": 13,
            "POSITION": 12,
            "TEXCOORD_0": 14
          },
          "indices": 15,
          "material": 3,
          "mode": 4
        }
      ]
    },
    {
      "name": "Object_4",
      "primitives": [
        {
          "attributes": {
            "NORMAL": 17,
            "POSITION": 16,
            "TEXCOORD_0": 18
          },
          "indices": 19,
          "material": 4,
          "mode": 4
        }
      ]
    }
  ],
  "nodes": [
    {
      "children": [
        1
      ],
      "matrix": [
        1.0,
        0.0,
        0.0,
        0.0,
        0.0,
        2.220446049250313e-16,
        -1.0,
        0.0,
        0.0,
        1.0,
        2.220446049250313e-16,
        0.0,
        0.0,
        0.0,
        0.0,
        1.0
      ],
      "name": "Sketchfab_model"
    },
    {
      "children": [
        2,
        3,
        4,
        5,
        6
      ],
      "name": "4614e5cd34de423c8b9b2547eedf9351.obj.cleaner.materialmerger.gles"
    },
    {
      "mesh": 0,
      "name": "Object_2"
    },
    {
      "mesh": 1,
      "name": "Object_3"
    },
    {
      "mesh": 2,
      "name": "Object_4"
    },
    {
      "mesh": 3,
      "name": "Object_5"
    },
    {
      "mesh": 4,
      "name": "Object_6"
    }
  ],
  "samplers": [
    {
      "magFilter": 9729,
      "minFilter": 9987,
      "wrapS": 10497,
      "wrapT": 10497
    }
  ],
  "scene": 0,
  "scenes": [
    {
      "name": "Sketchfab_Scene",
      "nodes": [
        0
      ]
    }
  ],
  "textures": [
    {
      "sampler": 0,
      "source": 0
    }
  ]
}
